<?xml version="1.0" standalone="no"?>
<!DOCTYPE svg PUBLIC "-//W3C//DTD SVG 20010904//EN"
 "http://www.w3.org/TR/2001/REC-SVG-20010904/DTD/svg10.dtd">
<svg version="1.0" xmlns="http://www.w3.org/2000/svg"
 width="103.702767pt" height="129.920905pt" viewBox="0 0 103.702767 129.920905"
 preserveAspectRatio="xMidYMid meet">
<metadata>
Created by potrace 1.12, written by Peter Selinger 2001-2015
</metadata>
<g transform="translate(-18.174608,134.918256) scale(0.100000,-0.100000)"
fill="#000000" stroke="none">
<path d="M568 1331 c-85 -28 -138 -62 -208 -138 -244 -260 -236 -758 15 -1009
59 -59 177 -121 249 -131 57 -7 57 -15 5 132 -24 67 -33 113 -36 180 -6 116
12 194 81 350 67 150 91 251 82 349 -12 131 -70 279 -111 283 -11 1 -46 -6
-77 -16z m98 -47 c13 -26 16 -38 7 -41 -6 -2 -30 -17 -52 -34 -23 -16 -43 -29
-46 -29 -8 0 5 49 26 98 22 52 40 53 65 6z m-100 -21 c-8 -21 -17 -56 -21 -78
-7 -42 -31 -78 -46 -69 -26 16 2 157 34 172 42 20 48 15 33 -25z m-98 -106
c-1 -76 -4 -97 -20 -116 -10 -13 -21 -21 -25 -17 -4 3 -9 43 -11 89 -4 73 -2
85 18 110 12 15 25 27 30 27 4 0 8 -42 8 -93z m236 41 c5 -18 -2 -29 -32 -52
-70 -55 -168 -161 -211 -228 -24 -38 -48 -68 -52 -68 -5 0 -11 11 -15 25 -5
20 4 41 40 96 26 38 63 88 84 111 37 41 158 138 172 138 4 0 10 -10 14 -22z
m-305 -188 c8 -25 -13 -80 -31 -80 -13 0 -50 139 -44 164 3 12 16 36 28 52
l23 29 8 -70 c4 -39 11 -81 16 -95z m252 3 c-42 -44 -99 -119 -128 -167 l-51
-87 -21 27 -21 27 27 46 c57 99 125 177 223 255 l34 28 7 -24 c6 -21 -5 -37
-70 -105z m-275 -167 c56 -86 106 -145 163 -190 57 -46 59 -49 49 -77 l-10
-29 -45 33 c-84 60 -180 172 -228 269 -50 100 -52 112 -29 166 l16 37 29 -84
c15 -46 40 -102 55 -125z m354 171 c0 -25 -13 -50 -55 -103 -30 -38 -74 -104
-96 -148 l-41 -78 -21 20 c-18 19 -19 24 -7 54 23 57 100 169 157 230 31 32
58 58 60 58 1 0 3 -15 3 -33z m-25 -155 c-9 -28 -34 -89 -56 -136 -37 -77 -43
-84 -60 -73 -10 6 -19 17 -19 24 0 31 134 252 146 240 2 -2 -3 -27 -11 -55z
m-360 -132 c41 -55 150 -160 194 -186 24 -14 31 -25 31 -51 0 -17 -4 -34 -9
-37 -9 -6 -70 35 -147 100 -50 43 -145 167 -179 233 -12 23 -15 44 -10 70 11
59 16 57 52 -14 18 -37 49 -89 68 -115z m-101 -10 l26 -40 -22 -40 c-13 -22
-26 -40 -30 -40 -5 0 -8 36 -8 80 0 44 2 80 4 80 2 0 15 -18 30 -40z m50 -177
c-22 -32 -43 -58 -48 -58 -5 0 -13 13 -17 29 -7 24 -2 39 24 82 l32 53 24 -24
24 -23 -39 -59z m82 13 c18 -19 18 -31 -3 -64 -27 -44 -84 -112 -93 -112 -4 0
-13 13 -18 29 -9 26 -7 35 20 68 16 21 36 50 44 66 16 30 29 34 50 13z m117
-96 c62 -42 66 -48 67 -83 l0 -37 -59 29 c-32 16 -72 42 -90 56 -31 27 -31 27
-14 56 10 16 20 28 24 27 3 -2 36 -23 72 -48z m24 -129 c43 -20 52 -29 56 -55
2 -17 3 -33 1 -35 -8 -9 -170 79 -207 111 -36 31 -37 34 -22 55 l15 22 53 -37
c30 -20 76 -48 104 -61z m-160 -9 c35 -32 42 -44 46 -87 l5 -50 -30 35 c-44
51 -88 122 -82 131 8 14 17 10 61 -29z m114 -71 c19 -9 29 -26 39 -64 7 -29
15 -58 18 -66 4 -10 -7 -7 -35 9 -30 16 -43 32 -52 60 -13 43 -15 83 -3 78 4
-2 19 -10 33 -17z m113 -51 c4 -5 19 -34 31 -64 23 -57 20 -65 -20 -49 -17 6
-65 96 -65 121 0 14 36 8 54 -8z"/>
<path d="M735 1340 c-4 -6 7 -43 23 -83 39 -93 55 -173 55 -272 0 -101 -19
-173 -84 -309 -28 -60 -57 -138 -65 -175 -29 -139 -12 -293 44 -396 27 -49 28
-50 74 -48 115 3 276 127 350 268 56 109 79 194 85 325 6 130 -5 216 -43 323
-33 96 -67 151 -138 226 -70 72 -122 106 -207 132 -70 22 -85 23 -94 9z m92
-42 c14 -11 47 -107 40 -115 -3 -2 -15 -2 -27 2 -20 6 -70 97 -70 126 0 11 37
3 57 -13z m101 -43 c21 -17 34 -41 42 -76 7 -27 10 -52 8 -54 -2 -3 -19 6 -37
18 -25 17 -38 37 -51 80 -21 66 -11 74 38 32z m168 -177 c24 -46 4 -51 -43
-10 -35 31 -43 45 -49 87 l-7 50 42 -48 c23 -27 48 -62 57 -79z m-203 56 c83
-41 177 -107 177 -125 0 -9 -7 -22 -15 -29 -12 -10 -21 -7 -52 18 -21 16 -65
44 -98 61 -70 38 -70 38 -79 74 -8 34 0 34 67 1z m37 -120 c30 -18 63 -41 73
-52 17 -19 17 -22 2 -51 l-16 -31 -37 28 c-20 16 -54 41 -74 56 -31 22 -38 33
-38 61 0 40 4 39 90 -11z m195 -93 c-15 -20 -36 -51 -47 -69 l-21 -33 -23 22
c-27 25 -27 26 42 119 l48 65 13 -34 c13 -32 13 -36 -12 -70z m-184 -37 c69
-52 125 -115 185 -206 49 -74 61 -115 47 -168 l-10 -35 -27 59 c-53 116 -156
240 -252 307 -40 27 -44 34 -44 70 0 38 1 39 23 28 12 -7 47 -32 78 -55z m233
-8 c5 -28 1 -44 -25 -85 l-31 -51 -19 24 c-10 13 -19 28 -19 33 0 13 70 113
79 113 5 0 12 -15 15 -34z m-269 -85 c98 -80 213 -250 231 -340 6 -30 -11
-101 -25 -101 -4 0 -13 21 -20 48 -30 116 -128 265 -223 343 -29 24 -54 43
-55 44 -7 2 12 55 21 55 6 0 38 -22 71 -49z m285 -77 c0 -41 -3 -73 -7 -70 -5
2 -16 20 -27 40 -18 34 -18 35 4 70 12 20 24 36 26 36 2 0 4 -34 4 -76z m-360
-10 c-24 -62 -127 -221 -137 -211 -6 7 30 102 72 190 36 74 39 77 56 61 14
-12 16 -21 9 -40z m64 -23 c16 -18 16 -22 -8 -68 -42 -83 -183 -253 -209 -253
-23 0 8 77 54 132 27 33 68 93 90 134 22 41 44 74 48 74 5 0 16 -9 25 -19z
m62 -76 c15 -23 14 -27 -23 -87 -39 -64 -190 -226 -230 -247 -21 -11 -23 -10
-23 18 0 23 13 42 61 88 65 62 136 154 165 216 21 44 28 45 50 12z m52 -79 c9
-21 6 -32 -27 -83 -47 -73 -135 -168 -204 -222 -62 -47 -72 -50 -81 -18 -5 17
2 28 32 51 69 54 179 173 217 235 21 33 41 61 45 61 4 0 12 -11 18 -24z m65
-172 c9 -46 8 -55 -12 -87 -29 -47 -41 -47 -41 0 0 20 -5 62 -12 93 -10 50 -9
59 8 84 l18 29 14 -34 c8 -19 19 -57 25 -85z m-89 -15 c3 -17 6 -59 6 -93 0
-57 -3 -64 -28 -83 l-28 -21 1 99 c1 63 7 104 15 114 19 22 27 19 34 -16z
m-74 -95 c0 -64 -19 -131 -38 -137 -10 -3 -25 -8 -34 -12 -16 -7 -17 -4 -4 26
7 19 17 57 21 84 6 47 27 85 47 85 4 0 8 -21 8 -46z m-90 -75 c-14 -54 -36
-89 -55 -89 -14 0 -51 58 -42 66 15 15 102 73 105 70 2 -2 -2 -24 -8 -47z"/>
</g>
</svg>
